<svg width="50" height="50" viewBox="0 0 50 50" fill="none" xmlns="http://www.w3.org/2000/svg">
<path d="M27.2773 40H22.9883V20.1719H27.2773V40ZM27.6641 13.8438C27.6641 14.5469 27.418 15.1445 26.9258 15.6367C26.4336 16.1055 25.8359 16.3398 25.1328 16.3398C24.4297 16.3398 23.832 16.0938 23.3398 15.6016C22.8711 15.1094 22.6367 14.5234 22.6367 13.8438C22.6367 13.1406 22.8828 12.543 23.375 12.0508C23.8672 11.5586 24.4531 11.3125 25.1328 11.3125C25.8359 11.3125 26.4336 11.5586 26.9258 12.0508C27.418 12.543 27.6641 13.1406 27.6641 13.8438Z" fill="black"/>
<circle cx="25" cy="25" r="23.5" stroke="black" stroke-width="3"/>
</svg>
