<svg width="254" height="40" viewBox="0 0 254 40" fill="none" xmlns="http://www.w3.org/2000/svg">
<path d="M5 0.5H102.109V39.5H5C2.51472 39.5 0.5 37.4853 0.5 35V5C0.5 2.51472 2.51472 0.5 5 0.5Z" fill="#FEB64A" stroke="#BDD7F7"/>
<path d="M20.0857 16.2727C20.0175 15.697 19.741 15.25 19.2562 14.9318C18.7713 14.6136 18.1766 14.4545 17.4721 14.4545C16.9569 14.4545 16.5062 14.5379 16.1198 14.7045C15.7372 14.8712 15.438 15.1004 15.2221 15.392C15.01 15.6837 14.9039 16.0152 14.9039 16.3864C14.9039 16.697 14.9778 16.964 15.1255 17.1875C15.277 17.4072 15.4702 17.5909 15.705 17.7386C15.9399 17.8826 16.1861 18.0019 16.4437 18.0966C16.7012 18.1875 16.938 18.2614 17.1539 18.3182L18.3357 18.6364C18.6387 18.7159 18.9759 18.8258 19.3471 18.9659C19.7221 19.1061 20.08 19.2973 20.4209 19.5398C20.7656 19.7784 21.0497 20.0852 21.2732 20.4602C21.4967 20.8352 21.6084 21.2955 21.6084 21.8409C21.6084 22.4697 21.4437 23.0379 21.1141 23.5455C20.7884 24.053 20.3111 24.4564 19.6823 24.7557C19.0573 25.0549 18.2978 25.2045 17.4039 25.2045C16.5706 25.2045 15.849 25.0701 15.2391 24.8011C14.6331 24.5322 14.1558 24.1572 13.8073 23.6761C13.4626 23.1951 13.2675 22.6364 13.2221 22H14.6766C14.7145 22.4394 14.8622 22.803 15.1198 23.0909C15.3812 23.375 15.7107 23.5871 16.1084 23.7273C16.51 23.8636 16.9418 23.9318 17.4039 23.9318C17.9418 23.9318 18.4247 23.8447 18.8528 23.6705C19.2808 23.4924 19.6198 23.2462 19.8698 22.9318C20.1198 22.6136 20.2448 22.2424 20.2448 21.8182C20.2448 21.4318 20.1369 21.1174 19.9209 20.875C19.705 20.6326 19.4209 20.4356 19.0687 20.2841C18.7164 20.1326 18.3357 20 17.9266 19.8864L16.4948 19.4773C15.5857 19.2159 14.866 18.8428 14.3357 18.358C13.8054 17.8731 13.5403 17.2386 13.5403 16.4545C13.5403 15.803 13.7164 15.2348 14.0687 14.75C14.4247 14.2614 14.902 13.8826 15.5005 13.6136C16.1028 13.3409 16.7751 13.2045 17.5175 13.2045C18.2675 13.2045 18.9342 13.339 19.5175 13.608C20.1009 13.8731 20.563 14.2367 20.9039 14.6989C21.2486 15.161 21.4304 15.6856 21.4494 16.2727H20.0857ZM24.9934 21.8182L24.9707 20.1591H25.2434L29.0616 16.2727H30.7207L26.6525 20.3864H26.5388L24.9934 21.8182ZM23.7434 25V13.3636H25.0843V25H23.7434ZM29.2888 25L25.8797 20.6818L26.8343 19.75L30.9934 25H29.2888ZM32.4465 25V16.2727H33.7874V25H32.4465ZM33.1283 14.8182C32.867 14.8182 32.6416 14.7292 32.4522 14.5511C32.2666 14.3731 32.1738 14.1591 32.1738 13.9091C32.1738 13.6591 32.2666 13.4451 32.4522 13.267C32.6416 13.089 32.867 13 33.1283 13C33.3897 13 33.6132 13.089 33.7988 13.267C33.9882 13.4451 34.0829 13.6591 34.0829 13.9091C34.0829 14.1591 33.9882 14.3731 33.7988 14.5511C33.6132 14.7292 33.3897 14.8182 33.1283 14.8182ZM37.5843 13.3636V25H36.2434V13.3636H37.5843ZM41.3812 13.3636V25H40.0403V13.3636H41.3812ZM54.519 18.2273L53.3144 18.5682C53.2387 18.3674 53.1269 18.1723 52.9792 17.983C52.8352 17.7898 52.6383 17.6307 52.3883 17.5057C52.1383 17.3807 51.8182 17.3182 51.428 17.3182C50.894 17.3182 50.4489 17.4413 50.0928 17.6875C49.7405 17.9299 49.5644 18.2386 49.5644 18.6136C49.5644 18.947 49.6856 19.2102 49.928 19.4034C50.1705 19.5966 50.5493 19.7576 51.0644 19.8864L52.3599 20.2045C53.1402 20.3939 53.7216 20.6837 54.1042 21.0739C54.4868 21.4602 54.678 21.9583 54.678 22.5682C54.678 23.0682 54.5341 23.5152 54.2462 23.9091C53.9621 24.303 53.5644 24.6136 53.053 24.8409C52.5417 25.0682 51.947 25.1818 51.269 25.1818C50.3788 25.1818 49.6421 24.9886 49.0587 24.6023C48.4754 24.2159 48.1061 23.6515 47.9508 22.9091L49.2235 22.5909C49.3447 23.0606 49.5739 23.4129 49.911 23.6477C50.2519 23.8826 50.697 24 51.2462 24C51.8712 24 52.3674 23.8674 52.7349 23.6023C53.1061 23.3333 53.2917 23.0114 53.2917 22.6364C53.2917 22.3333 53.1856 22.0795 52.9735 21.875C52.7614 21.6667 52.4356 21.5114 51.9962 21.4091L50.5417 21.0682C49.7424 20.8788 49.1553 20.5852 48.7803 20.1875C48.4091 19.786 48.2235 19.2841 48.2235 18.6818C48.2235 18.1894 48.3618 17.7538 48.6383 17.375C48.9186 16.9962 49.2993 16.6989 49.7803 16.483C50.2652 16.267 50.8144 16.1591 51.428 16.1591C52.2917 16.1591 52.9697 16.3485 53.4621 16.7273C53.9583 17.1061 54.3106 17.6061 54.519 18.2273ZM60.242 25.1818C59.4238 25.1818 58.7192 24.9886 58.1283 24.6023C57.5374 24.2159 57.0829 23.6837 56.7647 23.0057C56.4465 22.3277 56.2874 21.553 56.2874 20.6818C56.2874 19.7955 56.4503 19.0133 56.7761 18.3352C57.1056 17.6534 57.5639 17.1212 58.1511 16.7386C58.742 16.3523 59.4314 16.1591 60.2192 16.1591C60.8329 16.1591 61.3859 16.2727 61.8783 16.5C62.3708 16.7273 62.7742 17.0455 63.0886 17.4545C63.403 17.8636 63.598 18.3409 63.6738 18.8864H62.3329C62.2306 18.4886 62.0033 18.1364 61.6511 17.8295C61.3026 17.5189 60.8329 17.3636 60.242 17.3636C59.7192 17.3636 59.2609 17.5 58.867 17.7727C58.4768 18.0417 58.1719 18.4223 57.9522 18.9148C57.7363 19.4034 57.6283 19.9773 57.6283 20.6364C57.6283 21.3106 57.7344 21.8977 57.9465 22.3977C58.1624 22.8977 58.4655 23.286 58.8556 23.5625C59.2495 23.839 59.7117 23.9773 60.242 23.9773C60.5905 23.9773 60.9067 23.9167 61.1908 23.7955C61.4749 23.6742 61.7155 23.5 61.9124 23.2727C62.1094 23.0455 62.2495 22.7727 62.3329 22.4545H63.6738C63.598 22.9697 63.4105 23.4337 63.1113 23.8466C62.8158 24.2557 62.4238 24.5814 61.9351 24.8239C61.4503 25.0625 60.8859 25.1818 60.242 25.1818ZM69.1795 25.1818C68.3916 25.1818 67.7003 24.9943 67.1056 24.6193C66.5147 24.2443 66.0526 23.7197 65.7192 23.0455C65.3897 22.3712 65.2249 21.5833 65.2249 20.6818C65.2249 19.7727 65.3897 18.9792 65.7192 18.3011C66.0526 17.6231 66.5147 17.0966 67.1056 16.7216C67.7003 16.3466 68.3916 16.1591 69.1795 16.1591C69.9673 16.1591 70.6567 16.3466 71.2476 16.7216C71.8423 17.0966 72.3045 17.6231 72.634 18.3011C72.9673 18.9792 73.134 19.7727 73.134 20.6818C73.134 21.5833 72.9673 22.3712 72.634 23.0455C72.3045 23.7197 71.8423 24.2443 71.2476 24.6193C70.6567 24.9943 69.9673 25.1818 69.1795 25.1818ZM69.1795 23.9773C69.778 23.9773 70.2704 23.8239 70.6567 23.517C71.0431 23.2102 71.3291 22.8068 71.5147 22.3068C71.7003 21.8068 71.7931 21.2652 71.7931 20.6818C71.7931 20.0985 71.7003 19.5549 71.5147 19.0511C71.3291 18.5473 71.0431 18.1402 70.6567 17.8295C70.2704 17.5189 69.778 17.3636 69.1795 17.3636C68.581 17.3636 68.0886 17.5189 67.7022 17.8295C67.3158 18.1402 67.0298 18.5473 66.8442 19.0511C66.6586 19.5549 66.5658 20.0985 66.5658 20.6818C66.5658 21.2652 66.6586 21.8068 66.8442 22.3068C67.0298 22.8068 67.3158 23.2102 67.7022 23.517C68.0886 23.8239 68.581 23.9773 69.1795 23.9773ZM75.1809 25V16.2727H76.4763V17.5909H76.5672C76.7263 17.1591 77.0142 16.8087 77.4309 16.5398C77.8476 16.2708 78.3172 16.1364 78.84 16.1364C78.9385 16.1364 79.0616 16.1383 79.2093 16.142C79.357 16.1458 79.4688 16.1515 79.5445 16.1591V17.5227C79.4991 17.5114 79.3949 17.4943 79.232 17.4716C79.0729 17.4451 78.9044 17.4318 78.7263 17.4318C78.3021 17.4318 77.9233 17.5208 77.59 17.6989C77.2604 17.8731 76.9991 18.1155 76.8059 18.4261C76.6165 18.733 76.5218 19.0833 76.5218 19.4773V25H75.1809ZM84.5275 25.1818C83.6866 25.1818 82.9612 24.9962 82.3513 24.625C81.7453 24.25 81.2775 23.7273 80.9479 23.0568C80.6222 22.3826 80.4593 21.5985 80.4593 20.7045C80.4593 19.8106 80.6222 19.0227 80.9479 18.3409C81.2775 17.6553 81.7358 17.1212 82.3229 16.7386C82.9138 16.3523 83.6032 16.1591 84.3911 16.1591C84.8457 16.1591 85.2945 16.2348 85.7377 16.3864C86.1809 16.5379 86.5843 16.7841 86.9479 17.125C87.3116 17.4621 87.6013 17.9091 87.8173 18.4659C88.0332 19.0227 88.1411 19.7083 88.1411 20.5227V21.0909H81.4138V19.9318H86.7775C86.7775 19.4394 86.679 19 86.482 18.6136C86.2888 18.2273 86.0123 17.9223 85.6525 17.6989C85.2964 17.4754 84.876 17.3636 84.3911 17.3636C83.857 17.3636 83.3949 17.4962 83.0047 17.7614C82.6184 18.0227 82.321 18.3636 82.1127 18.7841C81.9044 19.2045 81.8002 19.6553 81.8002 20.1364V20.9091C81.8002 21.5682 81.9138 22.1269 82.1411 22.5852C82.3722 23.0398 82.6922 23.3864 83.1013 23.625C83.5104 23.8598 83.9858 23.9773 84.5275 23.9773C84.8797 23.9773 85.1979 23.928 85.482 23.8295C85.7699 23.7273 86.018 23.5758 86.2263 23.375C86.4347 23.1705 86.5957 22.9167 86.7093 22.6136L88.0048 22.9773C87.8684 23.4167 87.6392 23.803 87.3172 24.1364C86.9953 24.4659 86.5976 24.7235 86.1241 24.9091C85.6506 25.0909 85.1184 25.1818 84.5275 25.1818Z" fill="black"/>
<path d="M101.5 0.5H249C251.485 0.5 253.5 2.51472 253.5 5V35C253.5 37.4853 251.485 39.5 249 39.5H101.5V0.5Z" fill="#D1D1D1" stroke="#BDD7F7"/>
<path d="M113.409 13.3636H115.091L119.045 23.0227H119.182L123.136 13.3636H124.818V25H123.5V16.1591H123.386L119.75 25H118.477L114.841 16.1591H114.727V25H113.409V13.3636ZM131.007 25.1818C130.219 25.1818 129.528 24.9943 128.933 24.6193C128.342 24.2443 127.88 23.7197 127.547 23.0455C127.217 22.3712 127.053 21.5833 127.053 20.6818C127.053 19.7727 127.217 18.9792 127.547 18.3011C127.88 17.6231 128.342 17.0966 128.933 16.7216C129.528 16.3466 130.219 16.1591 131.007 16.1591C131.795 16.1591 132.484 16.3466 133.075 16.7216C133.67 17.0966 134.132 17.6231 134.462 18.3011C134.795 18.9792 134.962 19.7727 134.962 20.6818C134.962 21.5833 134.795 22.3712 134.462 23.0455C134.132 23.7197 133.67 24.2443 133.075 24.6193C132.484 24.9943 131.795 25.1818 131.007 25.1818ZM131.007 23.9773C131.606 23.9773 132.098 23.8239 132.484 23.517C132.871 23.2102 133.157 22.8068 133.342 22.3068C133.528 21.8068 133.621 21.2652 133.621 20.6818C133.621 20.0985 133.528 19.5549 133.342 19.0511C133.157 18.5473 132.871 18.1402 132.484 17.8295C132.098 17.5189 131.606 17.3636 131.007 17.3636C130.409 17.3636 129.916 17.5189 129.53 17.8295C129.143 18.1402 128.857 18.5473 128.672 19.0511C128.486 19.5549 128.393 20.0985 128.393 20.6818C128.393 21.2652 128.486 21.8068 128.672 22.3068C128.857 22.8068 129.143 23.2102 129.53 23.517C129.916 23.8239 130.409 23.9773 131.007 23.9773ZM140.804 16.2727V17.4091H136.281V16.2727H140.804ZM137.599 14.1818H138.94V22.5C138.94 22.8788 138.995 23.1629 139.105 23.3523C139.219 23.5379 139.363 23.6629 139.537 23.7273C139.715 23.7879 139.902 23.8182 140.099 23.8182C140.247 23.8182 140.368 23.8106 140.463 23.7955C140.558 23.7765 140.634 23.7614 140.69 23.75L140.963 24.9545C140.872 24.9886 140.745 25.0227 140.582 25.0568C140.42 25.0947 140.213 25.1136 139.963 25.1136C139.584 25.1136 139.213 25.0322 138.849 24.8693C138.49 24.7064 138.19 24.4583 137.952 24.125C137.717 23.7917 137.599 23.3712 137.599 22.8636V14.1818ZM142.821 25V16.2727H144.162V25H142.821ZM143.503 14.8182C143.241 14.8182 143.016 14.7292 142.827 14.5511C142.641 14.3731 142.548 14.1591 142.548 13.9091C142.548 13.6591 142.641 13.4451 142.827 13.267C143.016 13.089 143.241 13 143.503 13C143.764 13 143.988 13.089 144.173 13.267C144.363 13.4451 144.457 13.6591 144.457 13.9091C144.457 14.1591 144.363 14.3731 144.173 14.5511C143.988 14.7292 143.764 14.8182 143.503 14.8182ZM153.754 16.2727L150.527 25H149.163L145.936 16.2727H147.391L149.8 23.2273H149.891L152.3 16.2727H153.754ZM157.827 25.2045C157.274 25.2045 156.772 25.1004 156.321 24.892C155.87 24.6799 155.512 24.375 155.247 23.9773C154.982 23.5758 154.849 23.0909 154.849 22.5227C154.849 22.0227 154.948 21.6174 155.145 21.3068C155.342 20.9924 155.605 20.7462 155.935 20.5682C156.264 20.3902 156.628 20.2576 157.026 20.1705C157.427 20.0795 157.83 20.0076 158.236 19.9545C158.766 19.8864 159.196 19.8352 159.526 19.8011C159.859 19.7633 160.101 19.7008 160.253 19.6136C160.408 19.5265 160.486 19.375 160.486 19.1591V19.1136C160.486 18.553 160.332 18.1174 160.026 17.8068C159.723 17.4962 159.262 17.3409 158.645 17.3409C158.005 17.3409 157.503 17.4811 157.139 17.7614C156.776 18.0417 156.52 18.3409 156.372 18.6591L155.099 18.2045C155.327 17.6742 155.63 17.2614 156.009 16.9659C156.391 16.6667 156.808 16.4583 157.259 16.3409C157.713 16.2197 158.16 16.1591 158.599 16.1591C158.88 16.1591 159.202 16.1932 159.565 16.2614C159.933 16.3258 160.287 16.4602 160.628 16.6648C160.973 16.8693 161.259 17.178 161.486 17.5909C161.713 18.0038 161.827 18.5568 161.827 19.25V25H160.486V23.8182H160.418C160.327 24.0076 160.175 24.2102 159.963 24.4261C159.751 24.642 159.469 24.8258 159.116 24.9773C158.764 25.1288 158.334 25.2045 157.827 25.2045ZM158.031 24C158.562 24 159.009 23.8958 159.372 23.6875C159.74 23.4792 160.016 23.2102 160.202 22.8807C160.391 22.5511 160.486 22.2045 160.486 21.8409V20.6136C160.429 20.6818 160.304 20.7443 160.111 20.8011C159.921 20.8542 159.702 20.9015 159.452 20.9432C159.205 20.9811 158.965 21.0152 158.73 21.0455C158.499 21.072 158.312 21.0947 158.168 21.1136C157.819 21.1591 157.493 21.233 157.19 21.3352C156.891 21.4337 156.649 21.5833 156.463 21.7841C156.281 21.9811 156.19 22.25 156.19 22.5909C156.19 23.0568 156.363 23.4091 156.707 23.6477C157.056 23.8826 157.497 24 158.031 24ZM168.07 16.2727V17.4091H163.547V16.2727H168.07ZM164.865 14.1818H166.206V22.5C166.206 22.8788 166.261 23.1629 166.371 23.3523C166.484 23.5379 166.628 23.6629 166.803 23.7273C166.981 23.7879 167.168 23.8182 167.365 23.8182C167.513 23.8182 167.634 23.8106 167.729 23.7955C167.823 23.7765 167.899 23.7614 167.956 23.75L168.229 24.9545C168.138 24.9886 168.011 25.0227 167.848 25.0568C167.685 25.0947 167.479 25.1136 167.229 25.1136C166.85 25.1136 166.479 25.0322 166.115 24.8693C165.755 24.7064 165.456 24.4583 165.217 24.125C164.982 23.7917 164.865 23.3712 164.865 22.8636V14.1818ZM170.087 25V16.2727H171.428V25H170.087ZM170.768 14.8182C170.507 14.8182 170.282 14.7292 170.092 14.5511C169.907 14.3731 169.814 14.1591 169.814 13.9091C169.814 13.6591 169.907 13.4451 170.092 13.267C170.282 13.089 170.507 13 170.768 13C171.03 13 171.253 13.089 171.439 13.267C171.628 13.4451 171.723 13.6591 171.723 13.9091C171.723 14.1591 171.628 14.3731 171.439 14.5511C171.253 14.7292 171.03 14.8182 170.768 14.8182ZM177.429 25.1818C176.641 25.1818 175.95 24.9943 175.355 24.6193C174.764 24.2443 174.302 23.7197 173.969 23.0455C173.639 22.3712 173.474 21.5833 173.474 20.6818C173.474 19.7727 173.639 18.9792 173.969 18.3011C174.302 17.6231 174.764 17.0966 175.355 16.7216C175.95 16.3466 176.641 16.1591 177.429 16.1591C178.217 16.1591 178.906 16.3466 179.497 16.7216C180.092 17.0966 180.554 17.6231 180.884 18.3011C181.217 18.9792 181.384 19.7727 181.384 20.6818C181.384 21.5833 181.217 22.3712 180.884 23.0455C180.554 23.7197 180.092 24.2443 179.497 24.6193C178.906 24.9943 178.217 25.1818 177.429 25.1818ZM177.429 23.9773C178.027 23.9773 178.52 23.8239 178.906 23.517C179.293 23.2102 179.579 22.8068 179.764 22.3068C179.95 21.8068 180.043 21.2652 180.043 20.6818C180.043 20.0985 179.95 19.5549 179.764 19.0511C179.579 18.5473 179.293 18.1402 178.906 17.8295C178.52 17.5189 178.027 17.3636 177.429 17.3636C176.83 17.3636 176.338 17.5189 175.952 17.8295C175.565 18.1402 175.279 18.5473 175.094 19.0511C174.908 19.5549 174.815 20.0985 174.815 20.6818C174.815 21.2652 174.908 21.8068 175.094 22.3068C175.279 22.8068 175.565 23.2102 175.952 23.517C176.338 23.8239 176.83 23.9773 177.429 23.9773ZM184.771 19.75V25H183.43V16.2727H184.726V17.6364H184.839C185.044 17.1932 185.355 16.8371 185.771 16.5682C186.188 16.2955 186.726 16.1591 187.385 16.1591C187.976 16.1591 188.493 16.2803 188.936 16.5227C189.379 16.7614 189.724 17.125 189.97 17.6136C190.216 18.0985 190.339 18.7121 190.339 19.4545V25H188.999V19.5455C188.999 18.8598 188.821 18.3258 188.464 17.9432C188.108 17.5568 187.62 17.3636 186.999 17.3636C186.571 17.3636 186.188 17.4564 185.851 17.642C185.518 17.8277 185.254 18.0985 185.061 18.4545C184.868 18.8106 184.771 19.2424 184.771 19.75ZM203.472 18.2273L202.267 18.5682C202.191 18.3674 202.08 18.1723 201.932 17.983C201.788 17.7898 201.591 17.6307 201.341 17.5057C201.091 17.3807 200.771 17.3182 200.381 17.3182C199.847 17.3182 199.402 17.4413 199.045 17.6875C198.693 17.9299 198.517 18.2386 198.517 18.6136C198.517 18.947 198.638 19.2102 198.881 19.4034C199.123 19.5966 199.502 19.7576 200.017 19.8864L201.312 20.2045C202.093 20.3939 202.674 20.6837 203.057 21.0739C203.439 21.4602 203.631 21.9583 203.631 22.5682C203.631 23.0682 203.487 23.5152 203.199 23.9091C202.915 24.303 202.517 24.6136 202.006 24.8409C201.494 25.0682 200.9 25.1818 200.222 25.1818C199.331 25.1818 198.595 24.9886 198.011 24.6023C197.428 24.2159 197.059 23.6515 196.903 22.9091L198.176 22.5909C198.297 23.0606 198.527 23.4129 198.864 23.6477C199.205 23.8826 199.65 24 200.199 24C200.824 24 201.32 23.8674 201.688 23.6023C202.059 23.3333 202.244 23.0114 202.244 22.6364C202.244 22.3333 202.138 22.0795 201.926 21.875C201.714 21.6667 201.388 21.5114 200.949 21.4091L199.494 21.0682C198.695 20.8788 198.108 20.5852 197.733 20.1875C197.362 19.786 197.176 19.2841 197.176 18.6818C197.176 18.1894 197.314 17.7538 197.591 17.375C197.871 16.9962 198.252 16.6989 198.733 16.483C199.218 16.267 199.767 16.1591 200.381 16.1591C201.244 16.1591 201.922 16.3485 202.415 16.7273C202.911 17.1061 203.263 17.6061 203.472 18.2273ZM209.195 25.1818C208.376 25.1818 207.672 24.9886 207.081 24.6023C206.49 24.2159 206.036 23.6837 205.717 23.0057C205.399 22.3277 205.24 21.553 205.24 20.6818C205.24 19.7955 205.403 19.0133 205.729 18.3352C206.058 17.6534 206.517 17.1212 207.104 16.7386C207.695 16.3523 208.384 16.1591 209.172 16.1591C209.786 16.1591 210.339 16.2727 210.831 16.5C211.323 16.7273 211.727 17.0455 212.041 17.4545C212.356 17.8636 212.551 18.3409 212.626 18.8864H211.286C211.183 18.4886 210.956 18.1364 210.604 17.8295C210.255 17.5189 209.786 17.3636 209.195 17.3636C208.672 17.3636 208.214 17.5 207.82 17.7727C207.429 18.0417 207.125 18.4223 206.905 18.9148C206.689 19.4034 206.581 19.9773 206.581 20.6364C206.581 21.3106 206.687 21.8977 206.899 22.3977C207.115 22.8977 207.418 23.286 207.808 23.5625C208.202 23.839 208.664 23.9773 209.195 23.9773C209.543 23.9773 209.859 23.9167 210.143 23.7955C210.428 23.6742 210.668 23.5 210.865 23.2727C211.062 23.0455 211.202 22.7727 211.286 22.4545H212.626C212.551 22.9697 212.363 23.4337 212.064 23.8466C211.768 24.2557 211.376 24.5814 210.888 24.8239C210.403 25.0625 209.839 25.1818 209.195 25.1818ZM218.132 25.1818C217.344 25.1818 216.653 24.9943 216.058 24.6193C215.467 24.2443 215.005 23.7197 214.672 23.0455C214.342 22.3712 214.178 21.5833 214.178 20.6818C214.178 19.7727 214.342 18.9792 214.672 18.3011C215.005 17.6231 215.467 17.0966 216.058 16.7216C216.653 16.3466 217.344 16.1591 218.132 16.1591C218.92 16.1591 219.609 16.3466 220.2 16.7216C220.795 17.0966 221.257 17.6231 221.587 18.3011C221.92 18.9792 222.087 19.7727 222.087 20.6818C222.087 21.5833 221.92 22.3712 221.587 23.0455C221.257 23.7197 220.795 24.2443 220.2 24.6193C219.609 24.9943 218.92 25.1818 218.132 25.1818ZM218.132 23.9773C218.731 23.9773 219.223 23.8239 219.609 23.517C219.996 23.2102 220.282 22.8068 220.467 22.3068C220.653 21.8068 220.746 21.2652 220.746 20.6818C220.746 20.0985 220.653 19.5549 220.467 19.0511C220.282 18.5473 219.996 18.1402 219.609 17.8295C219.223 17.5189 218.731 17.3636 218.132 17.3636C217.534 17.3636 217.041 17.5189 216.655 17.8295C216.268 18.1402 215.982 18.5473 215.797 19.0511C215.611 19.5549 215.518 20.0985 215.518 20.6818C215.518 21.2652 215.611 21.8068 215.797 22.3068C215.982 22.8068 216.268 23.2102 216.655 23.517C217.041 23.8239 217.534 23.9773 218.132 23.9773ZM224.134 25V16.2727H225.429V17.5909H225.52C225.679 17.1591 225.967 16.8087 226.384 16.5398C226.8 16.2708 227.27 16.1364 227.793 16.1364C227.891 16.1364 228.014 16.1383 228.162 16.142C228.31 16.1458 228.421 16.1515 228.497 16.1591V17.5227C228.452 17.5114 228.348 17.4943 228.185 17.4716C228.026 17.4451 227.857 17.4318 227.679 17.4318C227.255 17.4318 226.876 17.5208 226.543 17.6989C226.213 17.8731 225.952 18.1155 225.759 18.4261C225.569 18.733 225.474 19.0833 225.474 19.4773V25H224.134ZM233.48 25.1818C232.639 25.1818 231.914 24.9962 231.304 24.625C230.698 24.25 230.23 23.7273 229.901 23.0568C229.575 22.3826 229.412 21.5985 229.412 20.7045C229.412 19.8106 229.575 19.0227 229.901 18.3409C230.23 17.6553 230.688 17.1212 231.276 16.7386C231.866 16.3523 232.556 16.1591 233.344 16.1591C233.798 16.1591 234.247 16.2348 234.69 16.3864C235.134 16.5379 235.537 16.7841 235.901 17.125C236.264 17.4621 236.554 17.9091 236.77 18.4659C236.986 19.0227 237.094 19.7083 237.094 20.5227V21.0909H230.366V19.9318H235.73C235.73 19.4394 235.632 19 235.435 18.6136C235.241 18.2273 234.965 17.9223 234.605 17.6989C234.249 17.4754 233.829 17.3636 233.344 17.3636C232.81 17.3636 232.348 17.4962 231.957 17.7614C231.571 18.0227 231.274 18.3636 231.065 18.7841C230.857 19.2045 230.753 19.6553 230.753 20.1364V20.9091C230.753 21.5682 230.866 22.1269 231.094 22.5852C231.325 23.0398 231.645 23.3864 232.054 23.625C232.463 23.8598 232.938 23.9773 233.48 23.9773C233.832 23.9773 234.151 23.928 234.435 23.8295C234.723 23.7273 234.971 23.5758 235.179 23.375C235.387 23.1705 235.548 22.9167 235.662 22.6136L236.957 22.9773C236.821 23.4167 236.592 23.803 236.27 24.1364C235.948 24.4659 235.55 24.7235 235.077 24.9091C234.603 25.0909 234.071 25.1818 233.48 25.1818Z" fill="black"/>
</svg>
